<?xml version="1.0" standalone="no"?><!-- Generator: Gravit.io --><svg xmlns="http://www.w3.org/2000/svg" xmlns:xlink="http://www.w3.org/1999/xlink" style="isolation:isolate" viewBox="0 0 48 48" width="48" height="48"><defs><clipPath id="_clipPath_F88xPNQcs1jsOmqDLJCiREGv7fsaeuAO"><rect width="48" height="48"/></clipPath></defs><g clip-path="url(#_clipPath_F88xPNQcs1jsOmqDLJCiREGv7fsaeuAO)"><path d=" M 0 24 C 0 10.754 10.754 0 24 0 C 37.246 0 48 10.754 48 24 C 48 37.246 37.246 48 24 48 C 10.754 48 0 37.246 0 24 Z " fill="rgb(254,52,50)"/><path d=" M 38.699 17.745 C 38.699 17.745 38.406 15.588 37.508 14.639 C 36.367 13.395 35.088 13.387 34.504 13.315 C 30.303 13 24.008 13 24.008 13 L 23.994 13 C 23.994 13 17.695 13 13.498 13.316 C 12.912 13.387 11.635 13.395 10.492 14.64 C 9.594 15.589 9.301 17.746 9.301 17.746 C 9.301 17.746 9 20.276 9 22.808 L 9 25.18 C 9 27.713 9.301 30.245 9.301 30.245 C 9.301 30.245 9.594 32.4 10.492 33.349 C 11.635 34.595 13.135 34.555 13.801 34.685 C 16.201 34.925 24 35 24 35 C 24 35 30.303 34.988 34.504 34.674 C 35.088 34.601 36.367 34.595 37.508 33.348 C 38.406 32.399 38.699 30.244 38.699 30.244 C 38.699 30.244 39 27.713 39 25.18 L 39 22.808 C 39 20.276 38.699 17.745 38.699 17.745 Z  M 20.904 28.058 L 20.902 19.269 L 29.007 23.68 L 20.904 28.058 L 20.904 28.058 Z " fill="rgb(255,255,255)"/><path d=" M 0 24 C 0 10.754 10.754 0 24 0 C 37.246 0 48 10.754 48 24 C 48 37.246 37.246 48 24 48 C 10.754 48 0 37.246 0 24 Z " fill="rgb(254,52,50)"/><path d=" M 38.699 17.745 C 38.699 17.745 38.406 15.588 37.508 14.639 C 36.367 13.395 35.088 13.387 34.504 13.315 C 30.303 13 24.008 13 24.008 13 L 23.994 13 C 23.994 13 17.695 13 13.498 13.316 C 12.912 13.387 11.635 13.395 10.492 14.64 C 9.594 15.589 9.301 17.746 9.301 17.746 C 9.301 17.746 9 20.276 9 22.808 L 9 25.18 C 9 27.713 9.301 30.245 9.301 30.245 C 9.301 30.245 9.594 32.4 10.492 33.349 C 11.635 34.595 13.135 34.555 13.801 34.685 C 16.201 34.925 24 35 24 35 C 24 35 30.303 34.988 34.504 34.674 C 35.088 34.601 36.367 34.595 37.508 33.348 C 38.406 32.399 38.699 30.244 38.699 30.244 C 38.699 30.244 39 27.713 39 25.18 L 39 22.808 C 39 20.276 38.699 17.745 38.699 17.745 Z  M 20.904 28.058 L 20.902 19.269 L 29.007 23.68 L 20.904 28.058 L 20.904 28.058 Z " fill="rgb(255,255,255)"/><path d=" M 0 24 C 0 10.754 10.754 0 24 0 C 37.246 0 48 10.754 48 24 C 48 37.246 37.246 48 24 48 C 10.754 48 0 37.246 0 24 Z " fill="rgb(140,158,255)"/><path d=" M 35.665 15.251 C 35.665 15.251 32.321 12.634 28.374 12.335 L 28.018 13.047 C 31.587 13.921 33.224 15.172 34.936 16.71 C 31.985 15.203 29.075 13.793 24 13.793 C 18.925 13.793 16.015 15.203 13.064 16.71 C 14.776 15.172 16.724 13.782 19.982 13.047 L 19.626 12.335 C 15.485 12.725 12.335 15.251 12.335 15.251 C 12.335 15.251 8.602 20.665 7.961 31.29 C 11.723 35.631 17.439 35.665 17.439 35.665 L 18.635 34.073 C 16.604 33.367 14.314 32.108 12.335 29.832 C 14.696 31.618 18.259 33.478 24 33.478 C 29.741 33.478 33.304 31.618 35.665 29.832 C 33.686 32.108 31.396 33.367 29.365 34.073 L 30.561 35.665 C 30.561 35.665 36.277 35.631 40.039 31.29 C 39.398 20.665 35.665 15.251 35.665 15.251 Z  M 19.261 28.374 C 17.852 28.374 16.71 27.07 16.71 25.458 C 16.71 23.846 17.852 22.542 19.261 22.542 C 20.671 22.542 21.813 23.846 21.813 25.458 C 21.813 27.07 20.671 28.374 19.261 28.374 Z  M 28.739 28.374 C 27.329 28.374 26.187 27.07 26.187 25.458 C 26.187 23.846 27.329 22.542 28.739 22.542 C 30.148 22.542 31.29 23.846 31.29 25.458 C 31.29 27.07 30.148 28.374 28.739 28.374 Z " fill="rgb(255,255,255)"/></g></svg>