<?xml version="1.0" standalone="no"?><!-- Generator: Gravit.io --><svg xmlns="http://www.w3.org/2000/svg" xmlns:xlink="http://www.w3.org/1999/xlink" style="isolation:isolate" viewBox="0 0 48 48" width="48" height="48"><defs><clipPath id="_clipPath_bfLuiiTlFlPUUAo5sgCV9jrTiqoSRIm0"><rect width="48" height="48"/></clipPath></defs><g clip-path="url(#_clipPath_bfLuiiTlFlPUUAo5sgCV9jrTiqoSRIm0)"><path d=" M 21.855 0.903 C 23.052 -0.255 25.015 -0.255 26.212 0.903 L 28.099 2.727 C 29.296 3.885 31.628 4.641 33.279 4.409 L 35.877 4.042 C 37.529 3.808 39.115 4.96 39.402 6.601 L 39.855 9.185 C 40.144 10.826 41.585 12.806 43.058 13.587 L 45.376 14.818 C 46.848 15.597 47.453 17.461 46.721 18.957 L 45.569 21.314 C 44.836 22.812 44.835 25.259 45.569 26.755 L 46.721 29.112 C 47.453 30.608 46.848 32.471 45.376 33.253 L 43.058 34.482 C 41.585 35.263 40.144 37.245 39.855 38.886 L 39.4 41.47 C 39.113 43.111 37.527 44.261 35.875 44.028 L 33.277 43.661 C 31.627 43.429 29.294 44.182 28.097 45.342 L 26.21 47.164 C 25.013 48.324 23.05 48.324 21.853 47.164 L 19.966 45.342 C 18.767 44.182 16.437 43.428 14.786 43.66 L 12.186 44.027 C 10.534 44.259 8.948 43.109 8.661 41.468 L 8.206 38.884 C 7.919 37.243 6.478 35.261 5.005 34.48 L 2.688 33.251 C 1.215 32.47 0.61 30.606 1.342 29.11 L 2.494 26.753 C 3.228 25.257 3.229 22.81 2.494 21.312 L 1.342 18.955 C 0.61 17.459 1.215 15.596 2.688 14.816 L 5.005 13.586 C 6.478 12.805 7.919 10.824 8.206 9.184 L 8.664 6.6 C 8.951 4.959 10.537 3.807 12.189 4.042 L 14.789 4.409 C 16.439 4.641 18.77 3.886 19.969 2.728 L 21.855 0.903 L 21.855 0.903 Z " fill="rgb(140,158,255)"/><path d=" M 35.665 15.251 C 35.665 15.251 32.321 12.634 28.374 12.335 L 28.018 13.047 C 31.587 13.921 33.224 15.172 34.936 16.71 C 31.985 15.203 29.075 13.793 24 13.793 C 18.925 13.793 16.015 15.203 13.064 16.71 C 14.776 15.172 16.724 13.782 19.982 13.047 L 19.626 12.335 C 15.485 12.725 12.335 15.251 12.335 15.251 C 12.335 15.251 8.602 20.665 7.961 31.29 C 11.723 35.631 17.439 35.665 17.439 35.665 L 18.635 34.073 C 16.604 33.367 14.314 32.108 12.335 29.832 C 14.696 31.618 18.259 33.478 24 33.478 C 29.741 33.478 33.304 31.618 35.665 29.832 C 33.686 32.108 31.396 33.367 29.365 34.073 L 30.561 35.665 C 30.561 35.665 36.277 35.631 40.039 31.29 C 39.398 20.665 35.665 15.251 35.665 15.251 Z  M 19.261 28.374 C 17.852 28.374 16.71 27.07 16.71 25.458 C 16.71 23.846 17.852 22.542 19.261 22.542 C 20.671 22.542 21.813 23.846 21.813 25.458 C 21.813 27.07 20.671 28.374 19.261 28.374 Z  M 28.739 28.374 C 27.329 28.374 26.187 27.07 26.187 25.458 C 26.187 23.846 27.329 22.542 28.739 22.542 C 30.148 22.542 31.29 23.846 31.29 25.458 C 31.29 27.07 30.148 28.374 28.739 28.374 Z " fill="rgb(255,255,255)"/></g></svg>