<?xml version="1.0" standalone="no"?><!-- Generator: Gravit.io --><svg xmlns="http://www.w3.org/2000/svg" xmlns:xlink="http://www.w3.org/1999/xlink" style="isolation:isolate" viewBox="0 0 48 48" width="48" height="48"><defs><clipPath id="_clipPath_Lh4nXQK7PPHcCrpJliy4MXhFBOgHc46w"><rect width="48" height="48"/></clipPath></defs><g clip-path="url(#_clipPath_Lh4nXQK7PPHcCrpJliy4MXhFBOgHc46w)"><path d=" M 0 0 L 48 0 L 48 48 L 0 48 L 0 0 Z " fill="rgb(140,158,255)"/><path d=" M 35.665 15.251 C 35.665 15.251 32.321 12.634 28.374 12.335 L 28.018 13.047 C 31.587 13.921 33.224 15.172 34.936 16.71 C 31.985 15.203 29.075 13.793 24 13.793 C 18.925 13.793 16.015 15.203 13.064 16.71 C 14.776 15.172 16.724 13.782 19.982 13.047 L 19.626 12.335 C 15.485 12.725 12.335 15.251 12.335 15.251 C 12.335 15.251 8.602 20.665 7.961 31.29 C 11.723 35.631 17.439 35.665 17.439 35.665 L 18.635 34.073 C 16.604 33.367 14.314 32.108 12.335 29.832 C 14.696 31.618 18.259 33.478 24 33.478 C 29.741 33.478 33.304 31.618 35.665 29.832 C 33.686 32.108 31.396 33.367 29.365 34.073 L 30.561 35.665 C 30.561 35.665 36.277 35.631 40.039 31.29 C 39.398 20.665 35.665 15.251 35.665 15.251 Z  M 19.261 28.374 C 17.852 28.374 16.71 27.07 16.71 25.458 C 16.71 23.846 17.852 22.542 19.261 22.542 C 20.671 22.542 21.813 23.846 21.813 25.458 C 21.813 27.07 20.671 28.374 19.261 28.374 Z  M 28.739 28.374 C 27.329 28.374 26.187 27.07 26.187 25.458 C 26.187 23.846 27.329 22.542 28.739 22.542 C 30.148 22.542 31.29 23.846 31.29 25.458 C 31.29 27.07 30.148 28.374 28.739 28.374 Z " fill="rgb(255,255,255)"/></g></svg>